<svg xmlns="http://www.w3.org/2000/svg" width="29" height="29" viewBox="0 0 29 29"><defs><style>.a{fill:#fff;}.b{fill:#767676;}</style></defs><g transform="translate(-2375 138)"><rect class="a" width="29" height="29" rx="14.5" transform="translate(2375 -138)"/><path class="b" d="M11.668,15h-7.5a.834.834,0,0,1-.833-.833V8.015l-.461.23a.834.834,0,0,1-1.066-.283L.14,5.462A.834.834,0,0,1,.333,4.333l3.334-2.5a.838.838,0,0,1,.5-.166h.488L6.078.244A.836.836,0,0,1,6.667,0h2.5a.837.837,0,0,1,.589.244l1.423,1.423h.488a.837.837,0,0,1,.5.166l3.334,2.5a.834.834,0,0,1,.193,1.129l-1.667,2.5a.834.834,0,0,1-1.066.283l-.461-.23v6.152A.834.834,0,0,1,11.668,15ZM7.012,1.667h0l-.871.871L7.5,4.092V7.5h.833V4.092L9.693,2.538l-.871-.871Z" transform="translate(2382 -131)"/></g></svg>