<svg xmlns="http://www.w3.org/2000/svg" width="29" height="29" viewBox="0 0 29 29"><defs><style>.a{fill:#fff;}.b{fill:#767676;}</style></defs><g transform="translate(-2565 138)"><rect class="a" width="29" height="29" rx="14.5" transform="translate(2565 -138)"/><path class="b" d="M9.625,9.624a2.184,2.184,0,0,1,.54-1.237A3.689,3.689,0,0,0,11,6.187,2.967,2.967,0,0,0,8.938,3.529V0H7.563V3.922a2.425,2.425,0,0,1-2.063.89,2.425,2.425,0,0,1-2.062-.888V0H2.063V3.529A2.967,2.967,0,0,0,0,6.187a3.689,3.689,0,0,0,.835,2.2,2.184,2.184,0,0,1,.54,1.237,2.17,2.17,0,0,1-.167.586,7.544,7.544,0,0,0-.52,2.851.688.688,0,0,0,.688.687h8.25a.688.688,0,0,0,.688-.687,7.53,7.53,0,0,0-.52-2.851,2.17,2.17,0,0,1-.167-.586" transform="translate(2574 -130)"/></g></svg>