<svg xmlns="http://www.w3.org/2000/svg" width="29" height="29" viewBox="0 0 29 29"><defs><style>.a{fill:#fff;}.b{fill:#767676;stroke:rgba(0,0,0,0);stroke-miterlimit:10;}</style></defs><g transform="translate(-2755 138)"><rect class="a" width="29" height="29" rx="14.5" transform="translate(2755 -138)"/><path class="b" d="M8740-457.5a1.5,1.5,0,0,1,1.5-1.5,1.5,1.5,0,0,1,1.5,1.5,1.5,1.5,0,0,1-1.5,1.5A1.5,1.5,0,0,1,8740-457.5Zm-4.5,0a1.5,1.5,0,0,1,1.5-1.5,1.5,1.5,0,0,1,1.5,1.5,1.5,1.5,0,0,1-1.5,1.5A1.5,1.5,0,0,1,8735.5-457.5Zm.748-2.248a.745.745,0,0,1-.709-.514l-1.5-4.5a.853.853,0,0,1-.035-.217c0-.235,0-.533,0-.768h9.045l.739-2.465a.749.749,0,0,1,.718-.536h3v1.5h-2.443l-2.09,6.966a.747.747,0,0,1-.718.536Zm3.532-6.751-3.754-3.754A4.447,4.447,0,0,1,8738.5-471h.748a.751.751,0,0,1,.751.751v3.75Zm-5.782,0a4.481,4.481,0,0,1,1.436-3.284l3.286,3.284Z" transform="translate(-5971 340)"/></g></svg>