<svg xmlns="http://www.w3.org/2000/svg" width="29" height="29" viewBox="0 0 29 29"><defs><style>.a{fill:#fff;}.b{fill:#767676;stroke:rgba(0,0,0,0);stroke-miterlimit:10;}</style></defs><g transform="translate(-2945 138)"><rect class="a" width="29" height="29" rx="14.5" transform="translate(2945 -138)"/><path class="b" d="M8735.875-456a1.252,1.252,0,0,1-1.251-1.249h10a1.25,1.25,0,0,1-1.251,1.249Zm-.625-1.874a1.25,1.25,0,0,1-1.249-1.251,1.25,1.25,0,0,1,1.249-1.249h5.006a.622.622,0,0,0,.178.441l1.249,1.251a.632.632,0,0,0,.443.182.624.624,0,0,0,.441-.182l1.251-1.251a.622.622,0,0,0,.178-.441h0a1.25,1.25,0,0,1,1.251,1.249,1.25,1.25,0,0,1-1.251,1.251Zm0-3.125a1.25,1.25,0,0,1-1.249-1.249,1.248,1.248,0,0,1,.509-1,2.751,2.751,0,0,0,1.365.377,2.151,2.151,0,0,0,1.286-.421,3.189,3.189,0,0,0,1.528.421,2.156,2.156,0,0,0,.937-.215,2.157,2.157,0,0,0,.938.215,3.181,3.181,0,0,0,1.525-.421,2.164,2.164,0,0,0,1.286.421,2.753,2.753,0,0,0,1.367-.377,1.245,1.245,0,0,1,.509,1A1.25,1.25,0,0,1,8744-461Zm6.876-3.134a2.226,2.226,0,0,1-1.562.634,1.537,1.537,0,0,1-.937-.32,1.538,1.538,0,0,1-.937.32,2.234,2.234,0,0,1-1.565-.634,1.547,1.547,0,0,1-1.249.634,1.8,1.8,0,0,1-1.874-1.563,1.393,1.393,0,0,1,1.249-.937H8744a1.4,1.4,0,0,1,1.251.937,1.8,1.8,0,0,1-1.876,1.563A1.553,1.553,0,0,1,8742.126-464.134Zm1.249-2.491h-7.5a5.407,5.407,0,0,0-1.225.121,5.007,5.007,0,0,1,4.974-4.495,5.007,5.007,0,0,1,4.976,4.495A5.4,5.4,0,0,0,8743.375-466.626Z" transform="translate(-5780 340)"/></g></svg>