<svg xmlns="http://www.w3.org/2000/svg" width="29" height="29" viewBox="0 0 29 29"><defs><style>.a{fill:#fff;}.b{fill:#757575;}</style></defs><g transform="translate(-3135 138)"><rect class="a" width="29" height="29" rx="14.5" transform="translate(3135 -138)"/><path class="b" d="M12.19,15a3.41,3.41,0,0,1-1.141-.167,2.945,2.945,0,0,1-.994-.6,15.634,15.634,0,0,1-2.356-3.1,15.641,15.641,0,0,1-2.356,3.1,2.945,2.945,0,0,1-.994.6A3.409,3.409,0,0,1,3.208,15a3.207,3.207,0,1,1,0-6.415A3.162,3.162,0,0,1,5.46,9.52l.617-.949-.637-1.02c-1.069-1.714-2.22-3.56-3.512-5.623l-.335-.534L3.736,0,7.7,6.08,11.662,0,13.8,1.394l-.335.534Q11.56,4.977,9.956,7.551L9.32,8.571l.617.949a3.162,3.162,0,0,1,2.253-.935,3.207,3.207,0,1,1,0,6.415Zm0-4.49a1.283,1.283,0,1,0,1.283,1.283A1.285,1.285,0,0,0,12.19,10.51Zm-8.982,0a1.283,1.283,0,1,0,1.283,1.283A1.285,1.285,0,0,0,3.208,10.51Z" transform="translate(3142 -131)"/></g></svg>