<svg xmlns="http://www.w3.org/2000/svg" width="29" height="29" viewBox="0 0 29 29"><defs><style>.a{fill:#fff;}.b{fill:#767676;stroke:rgba(0,0,0,0);stroke-miterlimit:10;}</style></defs><g transform="translate(-3325 138)"><rect class="a" width="29" height="29" rx="14.5" transform="translate(3325 -138)"/><path class="b" d="M8748.213-456H8735.58a1.581,1.581,0,0,1-1.579-1.579v-9.473a1.581,1.581,0,0,1,1.579-1.579v-.791h1.578v.791h1.579v-1.579a.791.791,0,0,1,.791-.791h4.736a.79.79,0,0,1,.788.791v1.579h1.581v-.791h1.579v.791a1.581,1.581,0,0,1,1.579,1.579v9.473A1.581,1.581,0,0,1,8748.213-456Zm-8.687-4.737h0v1.579h1.579v.791h1.581v-.83a1.977,1.977,0,0,0,1.579-1.932,1.977,1.977,0,0,0-1.975-1.974h-.79a.4.4,0,0,1-.4-.4.4.4,0,0,1,.4-.4h2.765v-1.579h-1.579v-.788H8741.1v.828a1.982,1.982,0,0,0-1.579,1.935,1.977,1.977,0,0,0,1.975,1.974h.79a.4.4,0,0,1,.4.4.4.4,0,0,1-.4.393Zm.791-8.685h0v.791h3.157v-.791Z" transform="translate(-5402 340)"/></g></svg>