<svg xmlns="http://www.w3.org/2000/svg" width="15" height="15" viewBox="0 0 15 15"><defs><style>.a{fill:#fff;}</style></defs><g transform="translate(-2357 618)"><path class="a" d="M91.6-103.414H85.977a4.688,4.688,0,0,0-4.688,4.687V-93.1a4.688,4.688,0,0,0,4.688,4.688H91.6A4.688,4.688,0,0,0,96.289-93.1v-5.625A4.688,4.688,0,0,0,91.6-103.414ZM94.883-93.1A3.285,3.285,0,0,1,91.6-89.82H85.977A3.285,3.285,0,0,1,82.7-93.1v-5.625a3.285,3.285,0,0,1,3.281-3.281H91.6a3.285,3.285,0,0,1,3.281,3.281Z" transform="translate(2275.711 -514.586)"/><path class="a" d="M99.551-88.9a3.75,3.75,0,0,0-3.75,3.75,3.75,3.75,0,0,0,3.75,3.75,3.75,3.75,0,0,0,3.75-3.75A3.75,3.75,0,0,0,99.551-88.9Zm0,6.094a2.347,2.347,0,0,1-2.344-2.344A2.347,2.347,0,0,1,99.551-87.5a2.346,2.346,0,0,1,2.344,2.344A2.347,2.347,0,0,1,99.551-82.808Z" transform="translate(2264.949 -525.348)"/><circle class="a" cx="0.5" cy="0.5" r="0.5" transform="translate(2368.031 -615.031)"/></g></svg>