<svg xmlns="http://www.w3.org/2000/svg" width="11.67" height="15" viewBox="0 0 11.67 15"><defs><style>.a{fill:#fff;}</style></defs><g transform="translate(-2407.762 618)"><path class="a" d="M284.537-92.535a4.084,4.084,0,0,1-2.013-.958c-.394,2.065-.875,4.045-2.3,5.079-.44-3.121.646-5.465,1.15-7.954-.859-1.447.1-4.359,1.916-3.642,2.231.882-1.932,5.38.863,5.942,2.918.587,4.109-5.063,2.3-6.9-2.614-2.653-7.61-.06-7,3.737.15.928,1.109,1.21.383,2.491-1.673-.371-2.172-1.69-2.108-3.45a5.631,5.631,0,0,1,5.079-5.175c3.151-.353,6.108,1.157,6.517,4.121.459,3.345-1.423,6.968-4.792,6.708Z" transform="translate(2130.034 -514.586)"/></g></svg>