<svg xmlns="http://www.w3.org/2000/svg" width="15" height="13.136" viewBox="0 0 15 13.136"><defs><style>.a{fill:#fff;}</style></defs><g transform="translate(-2455.193 617.068)"><path class="a" d="M475.858-99.515a4.784,4.784,0,0,1-1.933.739h0a2.981,2.981,0,0,0-2.234-1.031,3.221,3.221,0,0,0-3.093,3.333,3.532,3.532,0,0,0,.077.739h0a8.7,8.7,0,0,1-6.555-3.436,3.488,3.488,0,0,0,.936,4.4,1.882,1.882,0,0,1-1.349-.378,3.187,3.187,0,0,0,2.388,3.256,2.258,2.258,0,0,1-1.289.1,2.982,2.982,0,0,0,2.767,2.26,4.854,4.854,0,0,1-4.3,1.383,8.8,8.8,0,0,0,4.837,1.478c4.991,0,8.866-4.356,8.66-9.725h0v-.051a5.575,5.575,0,0,0,1.5-1.718,5.159,5.159,0,0,1-1.718.524A3.513,3.513,0,0,0,475.858-99.515Z" transform="translate(1993.914 -517.261)"/></g></svg>